<svg xmlns="http://www.w3.org/2000/svg" enable-background="new 0 0 28 28" viewBox="0 0 28 28" id="docker">
  <path fill="#FFE577" d="M21.5,16.915c0,2.806-7.556,4.734-12.803,4.734S2.5,17.806,2.5,15s5.767-4.167,11.013-4.167S21.5,14.11,21.5,16.915z"></path>
  <path d="M10.113,22.5c-2.764,0-4.892-0.854-6.324-2.54c-1.374-1.618-2.054-4.107-1.693-6.196c0.042-0.24,0.25-0.415,0.493-0.415h15.621c0.425,0.009,0.783-0.062,1.043-0.139c-0.512-1.257-0.211-2.79,0.413-3.728L20,8.982c0.153-0.229,0.46-0.291,0.691-0.14l0.503,0.332c0.844,0.645,1.364,1.343,1.594,2.136c0.867-0.075,1.919,0.042,2.514,0.44l0.476,0.316c0.209,0.139,0.283,0.412,0.172,0.637l-0.056,0.115c-0.084,0.174-0.207,0.423-0.26,0.517c-0.882,1.667-2.529,1.861-3.391,1.875C20.149,19.915,15.855,22.5,10.113,22.5z M3.025,14.349c-0.166,1.719,0.423,3.666,1.525,4.964c1.234,1.452,3.105,2.188,5.562,2.188c5.437,0,9.464-2.48,11.339-6.984c0.079-0.189,0.262-0.311,0.471-0.308c0.982,0.024,2.183-0.117,2.83-1.347c0.004-0.007,0.01-0.018,0.014-0.025c0.019-0.032,0.054-0.1,0.092-0.179l-0.113-0.076c-0.357-0.238-1.396-0.384-2.259-0.224c-0.132,0.022-0.273-0.006-0.384-0.086c-0.111-0.08-0.185-0.202-0.203-0.337c-0.101-0.724-0.521-1.36-1.286-1.946L20.555,9.95l-0.059,0.087c-0.533,0.8-0.735,2.234-0.13,3.154c0.077,0.117,0.101,0.261,0.067,0.397c-0.035,0.136-0.125,0.251-0.249,0.317c-0.258,0.139-0.962,0.468-1.984,0.442H3.025z"></path>
  <path d="M18,14.342H3.501c-0.276,0-0.5-0.224-0.5-0.5v-2.848c0-0.276,0.224-0.5,0.5-0.5H18c0.276,0,0.5,0.224,0.5,0.5v2.848C18.5,14.119,18.276,14.342,18,14.342z M4.001,13.342H17.5v-1.848H4.001V13.342z"></path>
  <path d="M15,11.494H6c-0.276,0-0.5-0.224-0.5-0.5V8.146c0-0.276,0.224-0.5,0.5-0.5h9c0.276,0,0.5,0.224,0.5,0.5v2.849C15.5,11.271,15.276,11.494,15,11.494z M6.5,10.494h8V8.646h-8V10.494z"></path>
  <path d="M15,14.342h-3c-0.276,0-0.5-0.224-0.5-0.5V5.297c0-0.276,0.224-0.5,0.5-0.5h3c0.276,0,0.5,0.224,0.5,0.5v8.545C15.5,14.119,15.276,14.342,15,14.342z M12.5,13.342h2V5.797h-2V13.342z"></path>
  <path d="M12,14.342H9c-0.276,0-0.5-0.224-0.5-0.5V8.146c0-0.276,0.224-0.5,0.5-0.5h3c0.276,0,0.5,0.224,0.5,0.5v5.697C12.5,14.119,12.276,14.342,12,14.342z M9.5,13.342h2V8.646h-2V13.342z"></path>
  <path d="M9,14.342H6c-0.276,0-0.5-0.224-0.5-0.5v-2.848c0-0.276,0.224-0.5,0.5-0.5h3c0.276,0,0.5,0.224,0.5,0.5v2.848C9.5,14.119,9.276,14.342,9,14.342z M6.5,13.342h2v-1.848h-2V13.342z"></path>
</svg>
